<mxfile host="app.diagrams.net" agent="Mozilla/5.0 (Windows NT 10.0; Win64; x64) AppleWebKit/537.36 (KHTML, like Gecko) Chrome/126.0.0.0 Safari/537.36 OPR/112.0.0.0" version="24.7.16">
  <diagram id="C5RBs43oDa-KdzZeNtuy" name="Page-1">
    <mxGraphModel dx="912" dy="539" grid="1" gridSize="10" guides="1" tooltips="1" connect="1" arrows="1" fold="1" page="1" pageScale="1" pageWidth="827" pageHeight="1169" math="0" shadow="0">
      <root>
        <mxCell id="WIyWlLk6GJQsqaUBKTNV-0" />
        <mxCell id="WIyWlLk6GJQsqaUBKTNV-1" parent="WIyWlLk6GJQsqaUBKTNV-0" />
        <mxCell id="zkfFHV4jXpPFQw0GAbJ--0" value="Item" style="swimlane;fontStyle=2;align=center;verticalAlign=top;childLayout=stackLayout;horizontal=1;startSize=26;horizontalStack=0;resizeParent=1;resizeLast=0;collapsible=1;marginBottom=0;rounded=0;shadow=0;strokeWidth=1;" parent="WIyWlLk6GJQsqaUBKTNV-1" vertex="1">
          <mxGeometry x="10" y="10" width="170" height="160" as="geometry">
            <mxRectangle x="230" y="140" width="160" height="26" as="alternateBounds" />
          </mxGeometry>
        </mxCell>
        <mxCell id="zkfFHV4jXpPFQw0GAbJ--1" value="AllItemsCount" style="text;align=left;verticalAlign=top;spacingLeft=4;spacingRight=4;overflow=hidden;rotatable=0;points=[[0,0.5],[1,0.5]];portConstraint=eastwest;fontStyle=4" parent="zkfFHV4jXpPFQw0GAbJ--0" vertex="1">
          <mxGeometry y="26" width="170" height="26" as="geometry" />
        </mxCell>
        <mxCell id="zkfFHV4jXpPFQw0GAbJ--2" value="ID" style="text;align=left;verticalAlign=top;spacingLeft=4;spacingRight=4;overflow=hidden;rotatable=0;points=[[0,0.5],[1,0.5]];portConstraint=eastwest;rounded=0;shadow=0;html=0;" parent="zkfFHV4jXpPFQw0GAbJ--0" vertex="1">
          <mxGeometry y="52" width="170" height="26" as="geometry" />
        </mxCell>
        <mxCell id="zkfFHV4jXpPFQw0GAbJ--3" value="Name" style="text;align=left;verticalAlign=top;spacingLeft=4;spacingRight=4;overflow=hidden;rotatable=0;points=[[0,0.5],[1,0.5]];portConstraint=eastwest;rounded=0;shadow=0;html=0;" parent="zkfFHV4jXpPFQw0GAbJ--0" vertex="1">
          <mxGeometry y="78" width="170" height="26" as="geometry" />
        </mxCell>
        <mxCell id="7m8uhe4ZX5L2CbsM9HIG-1" value="Info" style="text;align=left;verticalAlign=top;spacingLeft=4;spacingRight=4;overflow=hidden;rotatable=0;points=[[0,0.5],[1,0.5]];portConstraint=eastwest;rounded=0;shadow=0;html=0;" vertex="1" parent="zkfFHV4jXpPFQw0GAbJ--0">
          <mxGeometry y="104" width="170" height="26" as="geometry" />
        </mxCell>
        <mxCell id="7m8uhe4ZX5L2CbsM9HIG-2" value="Cost" style="text;align=left;verticalAlign=top;spacingLeft=4;spacingRight=4;overflow=hidden;rotatable=0;points=[[0,0.5],[1,0.5]];portConstraint=eastwest;rounded=0;shadow=0;html=0;" vertex="1" parent="zkfFHV4jXpPFQw0GAbJ--0">
          <mxGeometry y="130" width="170" height="26" as="geometry" />
        </mxCell>
        <mxCell id="7m8uhe4ZX5L2CbsM9HIG-3" value="Customer" style="swimlane;fontStyle=2;align=center;verticalAlign=top;childLayout=stackLayout;horizontal=1;startSize=26;horizontalStack=0;resizeParent=1;resizeLast=0;collapsible=1;marginBottom=0;rounded=0;shadow=0;strokeWidth=1;" vertex="1" parent="WIyWlLk6GJQsqaUBKTNV-1">
          <mxGeometry x="10" y="460" width="170" height="130" as="geometry">
            <mxRectangle x="230" y="140" width="160" height="26" as="alternateBounds" />
          </mxGeometry>
        </mxCell>
        <mxCell id="7m8uhe4ZX5L2CbsM9HIG-4" value="AllCustomersCount" style="text;align=left;verticalAlign=top;spacingLeft=4;spacingRight=4;overflow=hidden;rotatable=0;points=[[0,0.5],[1,0.5]];portConstraint=eastwest;fontStyle=4" vertex="1" parent="7m8uhe4ZX5L2CbsM9HIG-3">
          <mxGeometry y="26" width="170" height="26" as="geometry" />
        </mxCell>
        <mxCell id="7m8uhe4ZX5L2CbsM9HIG-5" value="ID" style="text;align=left;verticalAlign=top;spacingLeft=4;spacingRight=4;overflow=hidden;rotatable=0;points=[[0,0.5],[1,0.5]];portConstraint=eastwest;rounded=0;shadow=0;html=0;" vertex="1" parent="7m8uhe4ZX5L2CbsM9HIG-3">
          <mxGeometry y="52" width="170" height="26" as="geometry" />
        </mxCell>
        <mxCell id="7m8uhe4ZX5L2CbsM9HIG-6" value="FullName" style="text;align=left;verticalAlign=top;spacingLeft=4;spacingRight=4;overflow=hidden;rotatable=0;points=[[0,0.5],[1,0.5]];portConstraint=eastwest;rounded=0;shadow=0;html=0;" vertex="1" parent="7m8uhe4ZX5L2CbsM9HIG-3">
          <mxGeometry y="78" width="170" height="26" as="geometry" />
        </mxCell>
        <mxCell id="7m8uhe4ZX5L2CbsM9HIG-7" value="Address" style="text;align=left;verticalAlign=top;spacingLeft=4;spacingRight=4;overflow=hidden;rotatable=0;points=[[0,0.5],[1,0.5]];portConstraint=eastwest;rounded=0;shadow=0;html=0;" vertex="1" parent="7m8uhe4ZX5L2CbsM9HIG-3">
          <mxGeometry y="104" width="170" height="26" as="geometry" />
        </mxCell>
        <mxCell id="7m8uhe4ZX5L2CbsM9HIG-9" value="ValueValidator" style="swimlane;fontStyle=6;align=center;verticalAlign=top;childLayout=stackLayout;horizontal=1;startSize=26;horizontalStack=0;resizeParent=1;resizeLast=0;collapsible=1;marginBottom=0;rounded=0;shadow=0;strokeWidth=1;" vertex="1" parent="WIyWlLk6GJQsqaUBKTNV-1">
          <mxGeometry x="620" y="260" width="170" height="130" as="geometry">
            <mxRectangle x="230" y="140" width="160" height="26" as="alternateBounds" />
          </mxGeometry>
        </mxCell>
        <mxCell id="7m8uhe4ZX5L2CbsM9HIG-17" value="Â " style="text;align=left;verticalAlign=top;spacingLeft=4;spacingRight=4;overflow=hidden;rotatable=0;points=[[0,0.5],[1,0.5]];portConstraint=eastwest;fontStyle=0" vertex="1" parent="7m8uhe4ZX5L2CbsM9HIG-9">
          <mxGeometry y="26" width="170" height="26" as="geometry" />
        </mxCell>
        <mxCell id="7m8uhe4ZX5L2CbsM9HIG-14" value="" style="endArrow=none;html=1;rounded=0;entryX=1;entryY=0.5;entryDx=0;entryDy=0;" edge="1" parent="7m8uhe4ZX5L2CbsM9HIG-9">
          <mxGeometry width="50" height="50" relative="1" as="geometry">
            <mxPoint y="52" as="sourcePoint" />
            <mxPoint x="170" y="52.5" as="targetPoint" />
          </mxGeometry>
        </mxCell>
        <mxCell id="7m8uhe4ZX5L2CbsM9HIG-18" value="AssertOnNeedSize" style="text;align=left;verticalAlign=top;spacingLeft=4;spacingRight=4;overflow=hidden;rotatable=0;points=[[0,0.5],[1,0.5]];portConstraint=eastwest;fontStyle=4" vertex="1" parent="7m8uhe4ZX5L2CbsM9HIG-9">
          <mxGeometry y="52" width="170" height="26" as="geometry" />
        </mxCell>
        <mxCell id="7m8uhe4ZX5L2CbsM9HIG-19" value="AssertValueInRange" style="text;align=left;verticalAlign=top;spacingLeft=4;spacingRight=4;overflow=hidden;rotatable=0;points=[[0,0.5],[1,0.5]];portConstraint=eastwest;fontStyle=4" vertex="1" parent="7m8uhe4ZX5L2CbsM9HIG-9">
          <mxGeometry y="78" width="170" height="26" as="geometry" />
        </mxCell>
        <mxCell id="7m8uhe4ZX5L2CbsM9HIG-21" value="AssertValueInRange" style="text;align=left;verticalAlign=top;spacingLeft=4;spacingRight=4;overflow=hidden;rotatable=0;points=[[0,0.5],[1,0.5]];portConstraint=eastwest;fontStyle=4" vertex="1" parent="7m8uhe4ZX5L2CbsM9HIG-9">
          <mxGeometry y="104" width="170" height="26" as="geometry" />
        </mxCell>
        <mxCell id="7m8uhe4ZX5L2CbsM9HIG-22" value="RandomItemData" style="swimlane;fontStyle=6;align=center;verticalAlign=top;childLayout=stackLayout;horizontal=1;startSize=26;horizontalStack=0;resizeParent=1;resizeLast=0;collapsible=1;marginBottom=0;rounded=0;shadow=0;strokeWidth=1;" vertex="1" parent="WIyWlLk6GJQsqaUBKTNV-1">
          <mxGeometry x="360" y="10" width="170" height="104" as="geometry">
            <mxRectangle x="230" y="140" width="160" height="26" as="alternateBounds" />
          </mxGeometry>
        </mxCell>
        <mxCell id="7m8uhe4ZX5L2CbsM9HIG-23" value="Names" style="text;align=left;verticalAlign=top;spacingLeft=4;spacingRight=4;overflow=hidden;rotatable=0;points=[[0,0.5],[1,0.5]];portConstraint=eastwest;fontStyle=4" vertex="1" parent="7m8uhe4ZX5L2CbsM9HIG-22">
          <mxGeometry y="26" width="170" height="26" as="geometry" />
        </mxCell>
        <mxCell id="7m8uhe4ZX5L2CbsM9HIG-25" value="Info" style="text;align=left;verticalAlign=top;spacingLeft=4;spacingRight=4;overflow=hidden;rotatable=0;points=[[0,0.5],[1,0.5]];portConstraint=eastwest;fontStyle=4" vertex="1" parent="7m8uhe4ZX5L2CbsM9HIG-22">
          <mxGeometry y="52" width="170" height="26" as="geometry" />
        </mxCell>
        <mxCell id="7m8uhe4ZX5L2CbsM9HIG-27" value="Costs" style="text;align=left;verticalAlign=top;spacingLeft=4;spacingRight=4;overflow=hidden;rotatable=0;points=[[0,0.5],[1,0.5]];portConstraint=eastwest;fontStyle=4" vertex="1" parent="7m8uhe4ZX5L2CbsM9HIG-22">
          <mxGeometry y="78" width="170" height="26" as="geometry" />
        </mxCell>
        <mxCell id="7m8uhe4ZX5L2CbsM9HIG-28" value="RandomCustomerData" style="swimlane;fontStyle=6;align=center;verticalAlign=top;childLayout=stackLayout;horizontal=1;startSize=26;horizontalStack=0;resizeParent=1;resizeLast=0;collapsible=1;marginBottom=0;rounded=0;shadow=0;strokeWidth=1;" vertex="1" parent="WIyWlLk6GJQsqaUBKTNV-1">
          <mxGeometry x="360" y="400" width="170" height="80" as="geometry">
            <mxRectangle x="230" y="140" width="160" height="26" as="alternateBounds" />
          </mxGeometry>
        </mxCell>
        <mxCell id="7m8uhe4ZX5L2CbsM9HIG-29" value="FullNames" style="text;align=left;verticalAlign=top;spacingLeft=4;spacingRight=4;overflow=hidden;rotatable=0;points=[[0,0.5],[1,0.5]];portConstraint=eastwest;fontStyle=4" vertex="1" parent="7m8uhe4ZX5L2CbsM9HIG-28">
          <mxGeometry y="26" width="170" height="26" as="geometry" />
        </mxCell>
        <mxCell id="7m8uhe4ZX5L2CbsM9HIG-30" value="Addresses" style="text;align=left;verticalAlign=top;spacingLeft=4;spacingRight=4;overflow=hidden;rotatable=0;points=[[0,0.5],[1,0.5]];portConstraint=eastwest;fontStyle=4" vertex="1" parent="7m8uhe4ZX5L2CbsM9HIG-28">
          <mxGeometry y="52" width="170" height="26" as="geometry" />
        </mxCell>
        <mxCell id="7m8uhe4ZX5L2CbsM9HIG-32" value="ItemFactory" style="swimlane;fontStyle=6;align=center;verticalAlign=top;childLayout=stackLayout;horizontal=1;startSize=26;horizontalStack=0;resizeParent=1;resizeLast=0;collapsible=1;marginBottom=0;rounded=0;shadow=0;strokeWidth=1;" vertex="1" parent="WIyWlLk6GJQsqaUBKTNV-1">
          <mxGeometry x="10" y="260" width="170" height="85" as="geometry">
            <mxRectangle x="230" y="140" width="160" height="26" as="alternateBounds" />
          </mxGeometry>
        </mxCell>
        <mxCell id="7m8uhe4ZX5L2CbsM9HIG-34" value="" style="endArrow=none;html=1;rounded=0;entryX=1;entryY=0.5;entryDx=0;entryDy=0;" edge="1" parent="7m8uhe4ZX5L2CbsM9HIG-32">
          <mxGeometry width="50" height="50" relative="1" as="geometry">
            <mxPoint y="52" as="sourcePoint" />
            <mxPoint x="170" y="52.5" as="targetPoint" />
          </mxGeometry>
        </mxCell>
        <mxCell id="7m8uhe4ZX5L2CbsM9HIG-33" value="Â " style="text;align=left;verticalAlign=top;spacingLeft=4;spacingRight=4;overflow=hidden;rotatable=0;points=[[0,0.5],[1,0.5]];portConstraint=eastwest;fontStyle=0" vertex="1" parent="7m8uhe4ZX5L2CbsM9HIG-32">
          <mxGeometry y="26" width="170" height="26" as="geometry" />
        </mxCell>
        <mxCell id="7m8uhe4ZX5L2CbsM9HIG-35" value="Randomize" style="text;align=left;verticalAlign=top;spacingLeft=4;spacingRight=4;overflow=hidden;rotatable=0;points=[[0,0.5],[1,0.5]];portConstraint=eastwest;fontStyle=4" vertex="1" parent="7m8uhe4ZX5L2CbsM9HIG-32">
          <mxGeometry y="52" width="170" height="26" as="geometry" />
        </mxCell>
        <mxCell id="7m8uhe4ZX5L2CbsM9HIG-38" value="CustomerFactory" style="swimlane;fontStyle=6;align=center;verticalAlign=top;childLayout=stackLayout;horizontal=1;startSize=26;horizontalStack=0;resizeParent=1;resizeLast=0;collapsible=1;marginBottom=0;rounded=0;shadow=0;strokeWidth=1;" vertex="1" parent="WIyWlLk6GJQsqaUBKTNV-1">
          <mxGeometry x="10" y="670" width="170" height="85" as="geometry">
            <mxRectangle x="230" y="140" width="160" height="26" as="alternateBounds" />
          </mxGeometry>
        </mxCell>
        <mxCell id="7m8uhe4ZX5L2CbsM9HIG-39" value="Â " style="text;align=left;verticalAlign=top;spacingLeft=4;spacingRight=4;overflow=hidden;rotatable=0;points=[[0,0.5],[1,0.5]];portConstraint=eastwest;fontStyle=0" vertex="1" parent="7m8uhe4ZX5L2CbsM9HIG-38">
          <mxGeometry y="26" width="170" height="26" as="geometry" />
        </mxCell>
        <mxCell id="7m8uhe4ZX5L2CbsM9HIG-40" value="" style="endArrow=none;html=1;rounded=0;entryX=1;entryY=0.5;entryDx=0;entryDy=0;" edge="1" parent="7m8uhe4ZX5L2CbsM9HIG-38">
          <mxGeometry width="50" height="50" relative="1" as="geometry">
            <mxPoint y="52" as="sourcePoint" />
            <mxPoint x="170" y="52.5" as="targetPoint" />
          </mxGeometry>
        </mxCell>
        <mxCell id="7m8uhe4ZX5L2CbsM9HIG-41" value="Randomize" style="text;align=left;verticalAlign=top;spacingLeft=4;spacingRight=4;overflow=hidden;rotatable=0;points=[[0,0.5],[1,0.5]];portConstraint=eastwest;fontStyle=4" vertex="1" parent="7m8uhe4ZX5L2CbsM9HIG-38">
          <mxGeometry y="52" width="170" height="26" as="geometry" />
        </mxCell>
        <mxCell id="7m8uhe4ZX5L2CbsM9HIG-49" value="" style="endArrow=classic;html=1;rounded=0;exitX=1;exitY=0.5;exitDx=0;exitDy=0;entryX=0;entryY=0.5;entryDx=0;entryDy=0;" edge="1" parent="WIyWlLk6GJQsqaUBKTNV-1" source="zkfFHV4jXpPFQw0GAbJ--3" target="7m8uhe4ZX5L2CbsM9HIG-18">
          <mxGeometry relative="1" as="geometry">
            <mxPoint x="180" y="131" as="sourcePoint" />
            <mxPoint x="270" y="91" as="targetPoint" />
            <Array as="points">
              <mxPoint x="340" y="250" />
            </Array>
          </mxGeometry>
        </mxCell>
        <mxCell id="7m8uhe4ZX5L2CbsM9HIG-50" value="ÐÐ°Ð»Ð¸Ð´Ð°ÑÐ¸Ñ Ð·Ð½Ð°ÑÐµÐ½Ð¸Ñ" style="edgeLabel;resizable=0;html=1;;align=center;verticalAlign=middle;" connectable="0" vertex="1" parent="7m8uhe4ZX5L2CbsM9HIG-49">
          <mxGeometry relative="1" as="geometry" />
        </mxCell>
        <mxCell id="7m8uhe4ZX5L2CbsM9HIG-51" value="" style="endArrow=classic;html=1;rounded=0;exitX=1;exitY=0.5;exitDx=0;exitDy=0;entryX=0;entryY=0.5;entryDx=0;entryDy=0;" edge="1" parent="WIyWlLk6GJQsqaUBKTNV-1" source="zkfFHV4jXpPFQw0GAbJ--2" target="7m8uhe4ZX5L2CbsM9HIG-19">
          <mxGeometry relative="1" as="geometry">
            <mxPoint x="180" y="160" as="sourcePoint" />
            <mxPoint x="630" y="284" as="targetPoint" />
            <Array as="points">
              <mxPoint x="350" y="230" />
            </Array>
          </mxGeometry>
        </mxCell>
        <mxCell id="7m8uhe4ZX5L2CbsM9HIG-52" value="ÐÐ°Ð»Ð¸Ð´Ð°ÑÐ¸Ñ Ð·Ð½Ð°ÑÐµÐ½Ð¸Ñ" style="edgeLabel;resizable=0;html=1;;align=center;verticalAlign=middle;" connectable="0" vertex="1" parent="7m8uhe4ZX5L2CbsM9HIG-51">
          <mxGeometry relative="1" as="geometry" />
        </mxCell>
        <mxCell id="7m8uhe4ZX5L2CbsM9HIG-53" value="" style="endArrow=classic;html=1;rounded=0;exitX=1;exitY=0.5;exitDx=0;exitDy=0;entryX=0;entryY=0.5;entryDx=0;entryDy=0;" edge="1" parent="WIyWlLk6GJQsqaUBKTNV-1" source="7m8uhe4ZX5L2CbsM9HIG-1" target="7m8uhe4ZX5L2CbsM9HIG-18">
          <mxGeometry relative="1" as="geometry">
            <mxPoint x="200" y="151" as="sourcePoint" />
            <mxPoint x="650" y="275" as="targetPoint" />
            <Array as="points">
              <mxPoint x="360" y="270" />
            </Array>
          </mxGeometry>
        </mxCell>
        <mxCell id="7m8uhe4ZX5L2CbsM9HIG-54" value="ÐÐ°Ð»Ð¸Ð´Ð°ÑÐ¸Ñ Ð·Ð½Ð°ÑÐµÐ½Ð¸Ñ" style="edgeLabel;resizable=0;html=1;;align=center;verticalAlign=middle;" connectable="0" vertex="1" parent="7m8uhe4ZX5L2CbsM9HIG-53">
          <mxGeometry relative="1" as="geometry" />
        </mxCell>
        <mxCell id="7m8uhe4ZX5L2CbsM9HIG-55" value="" style="endArrow=classic;html=1;rounded=0;exitX=1;exitY=0.5;exitDx=0;exitDy=0;entryX=0;entryY=0.5;entryDx=0;entryDy=0;" edge="1" parent="WIyWlLk6GJQsqaUBKTNV-1" source="7m8uhe4ZX5L2CbsM9HIG-2" target="7m8uhe4ZX5L2CbsM9HIG-21">
          <mxGeometry relative="1" as="geometry">
            <mxPoint x="190" y="167" as="sourcePoint" />
            <mxPoint x="580" y="265" as="targetPoint" />
            <Array as="points">
              <mxPoint x="340" y="290" />
              <mxPoint x="470" y="280" />
            </Array>
          </mxGeometry>
        </mxCell>
        <mxCell id="7m8uhe4ZX5L2CbsM9HIG-56" value="ÐÐ°Ð»Ð¸Ð´Ð°ÑÐ¸Ñ Ð·Ð½Ð°ÑÐµÐ½Ð¸Ñ" style="edgeLabel;resizable=0;html=1;;align=center;verticalAlign=middle;" connectable="0" vertex="1" parent="7m8uhe4ZX5L2CbsM9HIG-55">
          <mxGeometry relative="1" as="geometry" />
        </mxCell>
        <mxCell id="7m8uhe4ZX5L2CbsM9HIG-57" value="" style="endArrow=classic;html=1;rounded=0;exitX=1;exitY=0.5;exitDx=0;exitDy=0;entryX=1;entryY=0.5;entryDx=0;entryDy=0;" edge="1" parent="WIyWlLk6GJQsqaUBKTNV-1" source="7m8uhe4ZX5L2CbsM9HIG-5" target="7m8uhe4ZX5L2CbsM9HIG-19">
          <mxGeometry relative="1" as="geometry">
            <mxPoint x="219" y="390" as="sourcePoint" />
            <mxPoint x="750" y="470" as="targetPoint" />
            <Array as="points">
              <mxPoint x="370" y="510" />
              <mxPoint x="530" y="520" />
              <mxPoint x="790" y="420" />
            </Array>
          </mxGeometry>
        </mxCell>
        <mxCell id="7m8uhe4ZX5L2CbsM9HIG-58" value="ÐÐ°Ð»Ð¸Ð´Ð°ÑÐ¸Ñ Ð·Ð½Ð°ÑÐµÐ½Ð¸Ñ" style="edgeLabel;resizable=0;html=1;;align=center;verticalAlign=middle;" connectable="0" vertex="1" parent="7m8uhe4ZX5L2CbsM9HIG-57">
          <mxGeometry relative="1" as="geometry" />
        </mxCell>
        <mxCell id="7m8uhe4ZX5L2CbsM9HIG-59" value="" style="endArrow=classic;html=1;rounded=0;exitX=1;exitY=0.5;exitDx=0;exitDy=0;entryX=1;entryY=0.5;entryDx=0;entryDy=0;" edge="1" parent="WIyWlLk6GJQsqaUBKTNV-1" source="7m8uhe4ZX5L2CbsM9HIG-6" target="7m8uhe4ZX5L2CbsM9HIG-18">
          <mxGeometry relative="1" as="geometry">
            <mxPoint x="230" y="380" as="sourcePoint" />
            <mxPoint x="620" y="504" as="targetPoint" />
            <Array as="points">
              <mxPoint x="340" y="540" />
              <mxPoint x="650" y="530" />
              <mxPoint x="800" y="400" />
            </Array>
          </mxGeometry>
        </mxCell>
        <mxCell id="7m8uhe4ZX5L2CbsM9HIG-60" value="ÐÐ°Ð»Ð¸Ð´Ð°ÑÐ¸Ñ Ð·Ð½Ð°ÑÐµÐ½Ð¸Ñ" style="edgeLabel;resizable=0;html=1;;align=center;verticalAlign=middle;" connectable="0" vertex="1" parent="7m8uhe4ZX5L2CbsM9HIG-59">
          <mxGeometry relative="1" as="geometry" />
        </mxCell>
        <mxCell id="7m8uhe4ZX5L2CbsM9HIG-61" value="" style="endArrow=classic;html=1;rounded=0;exitX=1;exitY=0.5;exitDx=0;exitDy=0;entryX=1;entryY=0.5;entryDx=0;entryDy=0;" edge="1" parent="WIyWlLk6GJQsqaUBKTNV-1" source="7m8uhe4ZX5L2CbsM9HIG-7" target="7m8uhe4ZX5L2CbsM9HIG-18">
          <mxGeometry relative="1" as="geometry">
            <mxPoint x="210" y="213" as="sourcePoint" />
            <mxPoint x="600" y="337" as="targetPoint" />
            <Array as="points">
              <mxPoint x="370" y="530" />
              <mxPoint x="770" y="510" />
            </Array>
          </mxGeometry>
        </mxCell>
        <mxCell id="7m8uhe4ZX5L2CbsM9HIG-62" value="ÐÐ°Ð»Ð¸Ð´Ð°ÑÐ¸Ñ Ð·Ð½Ð°ÑÐµÐ½Ð¸Ñ" style="edgeLabel;resizable=0;html=1;;align=center;verticalAlign=middle;" connectable="0" vertex="1" parent="7m8uhe4ZX5L2CbsM9HIG-61">
          <mxGeometry relative="1" as="geometry" />
        </mxCell>
        <mxCell id="7m8uhe4ZX5L2CbsM9HIG-63" value="" style="endArrow=classic;html=1;rounded=0;exitX=1;exitY=0.5;exitDx=0;exitDy=0;entryX=0;entryY=0.5;entryDx=0;entryDy=0;" edge="1" parent="WIyWlLk6GJQsqaUBKTNV-1" source="zkfFHV4jXpPFQw0GAbJ--3" target="7m8uhe4ZX5L2CbsM9HIG-23">
          <mxGeometry relative="1" as="geometry">
            <mxPoint x="220" y="50" as="sourcePoint" />
            <mxPoint x="320" y="50" as="targetPoint" />
          </mxGeometry>
        </mxCell>
        <mxCell id="7m8uhe4ZX5L2CbsM9HIG-64" value="ÐÐµÐ½ÐµÑÐ°ÑÐ¸Ñ Ð½Ð°Ð·Ð²Ð°Ð½Ð¸Ñ" style="edgeLabel;resizable=0;html=1;;align=center;verticalAlign=middle;" connectable="0" vertex="1" parent="7m8uhe4ZX5L2CbsM9HIG-63">
          <mxGeometry relative="1" as="geometry" />
        </mxCell>
        <mxCell id="7m8uhe4ZX5L2CbsM9HIG-72" value="" style="endArrow=classic;html=1;rounded=0;exitX=1;exitY=0.5;exitDx=0;exitDy=0;entryX=0;entryY=0.5;entryDx=0;entryDy=0;" edge="1" parent="WIyWlLk6GJQsqaUBKTNV-1" source="7m8uhe4ZX5L2CbsM9HIG-1" target="7m8uhe4ZX5L2CbsM9HIG-25">
          <mxGeometry relative="1" as="geometry">
            <mxPoint x="190" y="141" as="sourcePoint" />
            <mxPoint x="370" y="59" as="targetPoint" />
          </mxGeometry>
        </mxCell>
        <mxCell id="7m8uhe4ZX5L2CbsM9HIG-73" value="ÐÐµÐ½ÐµÑÐ°ÑÐ¸Ñ Ð¾Ð¿Ð¸ÑÐ°Ð½Ð¸Ñ" style="edgeLabel;resizable=0;html=1;;align=center;verticalAlign=middle;" connectable="0" vertex="1" parent="7m8uhe4ZX5L2CbsM9HIG-72">
          <mxGeometry relative="1" as="geometry" />
        </mxCell>
        <mxCell id="7m8uhe4ZX5L2CbsM9HIG-75" value="" style="endArrow=classic;html=1;rounded=0;exitX=1;exitY=0.5;exitDx=0;exitDy=0;entryX=0;entryY=0.5;entryDx=0;entryDy=0;" edge="1" parent="WIyWlLk6GJQsqaUBKTNV-1" source="7m8uhe4ZX5L2CbsM9HIG-2" target="7m8uhe4ZX5L2CbsM9HIG-27">
          <mxGeometry relative="1" as="geometry">
            <mxPoint x="190" y="190" as="sourcePoint" />
            <mxPoint x="370" y="108" as="targetPoint" />
          </mxGeometry>
        </mxCell>
        <mxCell id="7m8uhe4ZX5L2CbsM9HIG-76" value="ÐÐµÐ½ÐµÑÐ°ÑÐ¸Ñ ÑÐµÐ½Ñ" style="edgeLabel;resizable=0;html=1;;align=center;verticalAlign=middle;" connectable="0" vertex="1" parent="7m8uhe4ZX5L2CbsM9HIG-75">
          <mxGeometry relative="1" as="geometry" />
        </mxCell>
        <mxCell id="7m8uhe4ZX5L2CbsM9HIG-77" value="" style="endArrow=classic;html=1;rounded=0;exitX=1;exitY=0.5;exitDx=0;exitDy=0;entryX=0;entryY=0.5;entryDx=0;entryDy=0;" edge="1" parent="WIyWlLk6GJQsqaUBKTNV-1" source="7m8uhe4ZX5L2CbsM9HIG-6" target="7m8uhe4ZX5L2CbsM9HIG-29">
          <mxGeometry relative="1" as="geometry">
            <mxPoint x="200" y="382" as="sourcePoint" />
            <mxPoint x="350" y="340" as="targetPoint" />
          </mxGeometry>
        </mxCell>
        <mxCell id="7m8uhe4ZX5L2CbsM9HIG-78" value="ÐÐµÐ½ÐµÑÐ°ÑÐ¸Ñ Ð¿Ð¾Ð»Ð½Ð¾Ð³Ð¾ Ð¸Ð¼ÐµÐ½Ð¸" style="edgeLabel;resizable=0;html=1;;align=center;verticalAlign=middle;" connectable="0" vertex="1" parent="7m8uhe4ZX5L2CbsM9HIG-77">
          <mxGeometry relative="1" as="geometry" />
        </mxCell>
        <mxCell id="7m8uhe4ZX5L2CbsM9HIG-79" value="" style="endArrow=classic;html=1;rounded=0;exitX=1;exitY=0.5;exitDx=0;exitDy=0;entryX=0;entryY=0.5;entryDx=0;entryDy=0;" edge="1" parent="WIyWlLk6GJQsqaUBKTNV-1" source="7m8uhe4ZX5L2CbsM9HIG-7" target="7m8uhe4ZX5L2CbsM9HIG-30">
          <mxGeometry relative="1" as="geometry">
            <mxPoint x="210" y="446" as="sourcePoint" />
            <mxPoint x="350" y="360" as="targetPoint" />
          </mxGeometry>
        </mxCell>
        <mxCell id="7m8uhe4ZX5L2CbsM9HIG-80" value="ÐÐµÐ½ÐµÑÐ°ÑÐ¸Ñ Ð°Ð´ÑÐµÑÐ°" style="edgeLabel;resizable=0;html=1;;align=center;verticalAlign=middle;" connectable="0" vertex="1" parent="7m8uhe4ZX5L2CbsM9HIG-79">
          <mxGeometry relative="1" as="geometry" />
        </mxCell>
        <mxCell id="7m8uhe4ZX5L2CbsM9HIG-83" value="" style="endArrow=classic;html=1;rounded=0;exitX=0.5;exitY=0;exitDx=0;exitDy=0;entryX=0.5;entryY=1;entryDx=0;entryDy=0;" edge="1" parent="WIyWlLk6GJQsqaUBKTNV-1" source="7m8uhe4ZX5L2CbsM9HIG-32" target="zkfFHV4jXpPFQw0GAbJ--0">
          <mxGeometry relative="1" as="geometry">
            <mxPoint x="90" y="220" as="sourcePoint" />
            <mxPoint x="190" y="220" as="targetPoint" />
          </mxGeometry>
        </mxCell>
        <mxCell id="7m8uhe4ZX5L2CbsM9HIG-84" value="ÐÐµÐ½ÐµÑÐ°ÑÐ¸Ñ Ð¾Ð±ÑÐµÐºÑÐ° ÐºÐ»Ð°ÑÑÐ°" style="edgeLabel;resizable=0;html=1;;align=center;verticalAlign=middle;" connectable="0" vertex="1" parent="7m8uhe4ZX5L2CbsM9HIG-83">
          <mxGeometry relative="1" as="geometry" />
        </mxCell>
        <mxCell id="7m8uhe4ZX5L2CbsM9HIG-86" value="" style="endArrow=classic;html=1;rounded=0;exitX=0.5;exitY=0;exitDx=0;exitDy=0;entryX=0.495;entryY=0.938;entryDx=0;entryDy=0;entryPerimeter=0;" edge="1" parent="WIyWlLk6GJQsqaUBKTNV-1" source="7m8uhe4ZX5L2CbsM9HIG-38" target="7m8uhe4ZX5L2CbsM9HIG-7">
          <mxGeometry relative="1" as="geometry">
            <mxPoint x="300" y="685" as="sourcePoint" />
            <mxPoint x="95" y="600" as="targetPoint" />
          </mxGeometry>
        </mxCell>
        <mxCell id="7m8uhe4ZX5L2CbsM9HIG-87" value="ÐÐµÐ½ÐµÑÐ°ÑÐ¸Ñ Ð¾Ð±ÑÐµÐºÑÐ° ÐºÐ»Ð°ÑÑÐ°" style="edgeLabel;resizable=0;html=1;;align=center;verticalAlign=middle;" connectable="0" vertex="1" parent="7m8uhe4ZX5L2CbsM9HIG-86">
          <mxGeometry relative="1" as="geometry" />
        </mxCell>
      </root>
    </mxGraphModel>
  </diagram>
</mxfile>
